<mxfile host="app.diagrams.net" modified="2021-02-25T18:05:22.686Z" agent="5.0 (X11; Linux x86_64) AppleWebKit/537.36 (KHTML, like Gecko) Chrome/88.0.4324.182 Safari/537.36" etag="XsGMLzVXK3RB9zLzmg8i" version="14.4.2" type="github">
  <diagram id="R2lEEEUBdFMjLlhIrx00" name="Page-1">
    <mxGraphModel dx="2604" dy="1660" grid="1" gridSize="10" guides="1" tooltips="1" connect="1" arrows="1" fold="1" page="0" pageScale="1" pageWidth="850" pageHeight="1100" math="0" shadow="0" extFonts="Permanent Marker^https://fonts.googleapis.com/css?family=Permanent+Marker">
      <root>
        <mxCell id="0" />
        <mxCell id="1" parent="0" />
        <mxCell id="oWGPLextWkkVd9E027HA-19" value="Donation" style="whiteSpace=wrap;html=1;align=center;fontSize=20;" vertex="1" parent="1">
          <mxGeometry x="610" y="390" width="100" height="40" as="geometry" />
        </mxCell>
        <mxCell id="oWGPLextWkkVd9E027HA-21" value="Donation Portal" style="whiteSpace=wrap;html=1;align=center;fontSize=20;" vertex="1" parent="1">
          <mxGeometry x="140" y="720" width="120" height="50" as="geometry" />
        </mxCell>
        <mxCell id="oWGPLextWkkVd9E027HA-22" value="Admin" style="whiteSpace=wrap;html=1;align=center;fontSize=20;" vertex="1" parent="1">
          <mxGeometry x="-100" y="230" width="120" height="60" as="geometry" />
        </mxCell>
        <mxCell id="oWGPLextWkkVd9E027HA-23" value="Needy People" style="whiteSpace=wrap;html=1;align=center;fontSize=20;" vertex="1" parent="1">
          <mxGeometry x="90" y="15" width="120" height="55" as="geometry" />
        </mxCell>
        <mxCell id="oWGPLextWkkVd9E027HA-24" value="Items" style="whiteSpace=wrap;html=1;align=center;fontSize=20;" vertex="1" parent="1">
          <mxGeometry x="400" y="75" width="100" height="40" as="geometry" />
        </mxCell>
        <mxCell id="oWGPLextWkkVd9E027HA-25" value="Type" style="whiteSpace=wrap;html=1;align=center;fontSize=20;" vertex="1" parent="1">
          <mxGeometry x="640" y="200" width="100" height="40" as="geometry" />
        </mxCell>
        <mxCell id="oWGPLextWkkVd9E027HA-27" value="Donator" style="whiteSpace=wrap;html=1;align=center;fontSize=20;" vertex="1" parent="1">
          <mxGeometry x="740" y="620" width="100" height="40" as="geometry" />
        </mxCell>
        <mxCell id="oWGPLextWkkVd9E027HA-28" value="Make" style="shape=rhombus;perimeter=rhombusPerimeter;whiteSpace=wrap;html=1;align=center;fontSize=20;" vertex="1" parent="1">
          <mxGeometry x="600" y="510" width="120" height="60" as="geometry" />
        </mxCell>
        <mxCell id="oWGPLextWkkVd9E027HA-30" value="Collect" style="shape=rhombus;perimeter=rhombusPerimeter;whiteSpace=wrap;html=1;align=center;fontSize=20;" vertex="1" parent="1">
          <mxGeometry x="230" y="590" width="100" height="60" as="geometry" />
        </mxCell>
        <mxCell id="oWGPLextWkkVd9E027HA-31" value="Register" style="shape=rhombus;perimeter=rhombusPerimeter;whiteSpace=wrap;html=1;align=center;fontSize=20;" vertex="1" parent="1">
          <mxGeometry x="-40" y="640" width="120" height="60" as="geometry" />
        </mxCell>
        <mxCell id="oWGPLextWkkVd9E027HA-32" value="Create Account" style="shape=rhombus;perimeter=rhombusPerimeter;whiteSpace=wrap;html=1;align=center;fontSize=20;" vertex="1" parent="1">
          <mxGeometry x="-70" y="375" width="120" height="75" as="geometry" />
        </mxCell>
        <mxCell id="oWGPLextWkkVd9E027HA-33" value="Receive donation" style="shape=rhombus;perimeter=rhombusPerimeter;whiteSpace=wrap;html=1;align=center;fontSize=14;" vertex="1" parent="1">
          <mxGeometry x="425" y="362.5" width="120" height="65" as="geometry" />
        </mxCell>
        <mxCell id="oWGPLextWkkVd9E027HA-38" value="" style="endArrow=none;html=1;rounded=0;fontSize=20;exitX=0.5;exitY=1;exitDx=0;exitDy=0;" edge="1" parent="1" source="oWGPLextWkkVd9E027HA-28">
          <mxGeometry relative="1" as="geometry">
            <mxPoint x="580" y="639.5" as="sourcePoint" />
            <mxPoint x="740" y="639.5" as="targetPoint" />
            <Array as="points">
              <mxPoint x="660" y="640" />
            </Array>
          </mxGeometry>
        </mxCell>
        <mxCell id="oWGPLextWkkVd9E027HA-39" value="1" style="resizable=0;html=1;align=right;verticalAlign=bottom;" connectable="0" vertex="1" parent="oWGPLextWkkVd9E027HA-38">
          <mxGeometry x="1" relative="1" as="geometry" />
        </mxCell>
        <mxCell id="oWGPLextWkkVd9E027HA-40" value="" style="endArrow=none;html=1;rounded=0;fontSize=20;entryX=0.5;entryY=0;entryDx=0;entryDy=0;exitX=0.5;exitY=1;exitDx=0;exitDy=0;" edge="1" parent="1" source="oWGPLextWkkVd9E027HA-19" target="oWGPLextWkkVd9E027HA-28">
          <mxGeometry relative="1" as="geometry">
            <mxPoint x="660" y="440" as="sourcePoint" />
            <mxPoint x="730" y="470" as="targetPoint" />
          </mxGeometry>
        </mxCell>
        <mxCell id="oWGPLextWkkVd9E027HA-41" value="N" style="resizable=0;html=1;align=right;verticalAlign=bottom;" connectable="0" vertex="1" parent="oWGPLextWkkVd9E027HA-40">
          <mxGeometry x="1" relative="1" as="geometry" />
        </mxCell>
        <mxCell id="oWGPLextWkkVd9E027HA-42" value="Type" style="shape=rhombus;perimeter=rhombusPerimeter;whiteSpace=wrap;html=1;align=center;fontSize=20;" vertex="1" parent="1">
          <mxGeometry x="650" y="290" width="80" height="40" as="geometry" />
        </mxCell>
        <mxCell id="oWGPLextWkkVd9E027HA-43" value="D_Type" style="ellipse;whiteSpace=wrap;html=1;align=center;fontSize=20;" vertex="1" parent="1">
          <mxGeometry x="760" y="375" width="100" height="40" as="geometry" />
        </mxCell>
        <mxCell id="oWGPLextWkkVd9E027HA-44" value="DID" style="ellipse;whiteSpace=wrap;html=1;align=center;fontSize=20;" vertex="1" parent="1">
          <mxGeometry x="770" y="430" width="100" height="40" as="geometry" />
        </mxCell>
        <mxCell id="oWGPLextWkkVd9E027HA-46" value="TID" style="ellipse;whiteSpace=wrap;html=1;align=center;fontStyle=4;fontSize=20;" vertex="1" parent="1">
          <mxGeometry x="660" y="115" width="90" height="45" as="geometry" />
        </mxCell>
        <mxCell id="oWGPLextWkkVd9E027HA-47" value="T_Name" style="ellipse;whiteSpace=wrap;html=1;align=center;fontStyle=0;fontSize=20;" vertex="1" parent="1">
          <mxGeometry x="770" y="100" width="100" height="40" as="geometry" />
        </mxCell>
        <mxCell id="oWGPLextWkkVd9E027HA-48" value="Type" style="shape=rhombus;perimeter=rhombusPerimeter;whiteSpace=wrap;html=1;align=center;fontSize=20;" vertex="1" parent="1">
          <mxGeometry x="510" y="132.5" width="90" height="40" as="geometry" />
        </mxCell>
        <mxCell id="oWGPLextWkkVd9E027HA-49" value="Store" style="shape=rhombus;perimeter=rhombusPerimeter;whiteSpace=wrap;html=1;align=center;fontSize=20;" vertex="1" parent="1">
          <mxGeometry x="440" y="210" width="90" height="50" as="geometry" />
        </mxCell>
        <mxCell id="oWGPLextWkkVd9E027HA-50" value="N_phone" style="ellipse;whiteSpace=wrap;html=1;align=center;fontSize=20;" vertex="1" parent="1">
          <mxGeometry y="-90" width="100" height="40" as="geometry" />
        </mxCell>
        <mxCell id="oWGPLextWkkVd9E027HA-51" value="N_Password" style="ellipse;whiteSpace=wrap;html=1;align=center;fontSize=20;" vertex="1" parent="1">
          <mxGeometry x="110" y="-85" width="130" height="45" as="geometry" />
        </mxCell>
        <mxCell id="oWGPLextWkkVd9E027HA-52" value="N_Name" style="ellipse;whiteSpace=wrap;html=1;align=center;fontSize=20;" vertex="1" parent="1">
          <mxGeometry x="-60" y="-30" width="100" height="40" as="geometry" />
        </mxCell>
        <mxCell id="oWGPLextWkkVd9E027HA-53" value="National_ID" style="ellipse;whiteSpace=wrap;html=1;align=center;fontStyle=4;fontSize=20;" vertex="1" parent="1">
          <mxGeometry x="-110" y="17.5" width="120" height="50" as="geometry" />
        </mxCell>
        <mxCell id="oWGPLextWkkVd9E027HA-54" value="&lt;span style=&quot;border-bottom: 1px dotted&quot;&gt;Location&lt;/span&gt;" style="ellipse;whiteSpace=wrap;html=1;align=center;strokeColor=#000000;fontSize=20;" vertex="1" parent="1">
          <mxGeometry x="250" y="5" width="100" height="40" as="geometry" />
        </mxCell>
        <mxCell id="oWGPLextWkkVd9E027HA-55" value="&lt;span&gt;I_ID&lt;/span&gt;" style="ellipse;whiteSpace=wrap;html=1;align=center;strokeColor=#000000;fontSize=20;fontStyle=4" vertex="1" parent="1">
          <mxGeometry x="410" y="-60" width="100" height="40" as="geometry" />
        </mxCell>
        <mxCell id="oWGPLextWkkVd9E027HA-56" value="I_Name" style="ellipse;whiteSpace=wrap;html=1;align=center;strokeColor=#000000;fontSize=20;" vertex="1" parent="1">
          <mxGeometry x="510" y="-40" width="100" height="40" as="geometry" />
        </mxCell>
        <mxCell id="oWGPLextWkkVd9E027HA-58" value="Quantity" style="ellipse;whiteSpace=wrap;html=1;align=center;strokeColor=#000000;fontSize=20;" vertex="1" parent="1">
          <mxGeometry x="550" y="10" width="100" height="40" as="geometry" />
        </mxCell>
        <mxCell id="oWGPLextWkkVd9E027HA-59" value="Income" style="ellipse;whiteSpace=wrap;html=1;align=center;strokeColor=#000000;fontSize=20;" vertex="1" parent="1">
          <mxGeometry x="240" y="-50" width="90" height="40" as="geometry" />
        </mxCell>
        <mxCell id="oWGPLextWkkVd9E027HA-60" value="approve" style="shape=rhombus;perimeter=rhombusPerimeter;whiteSpace=wrap;html=1;align=center;strokeColor=#000000;fontSize=20;" vertex="1" parent="1">
          <mxGeometry x="80" y="230" width="120" height="60" as="geometry" />
        </mxCell>
        <mxCell id="oWGPLextWkkVd9E027HA-61" value="deliver donation" style="shape=rhombus;perimeter=rhombusPerimeter;whiteSpace=wrap;html=1;align=center;strokeColor=#000000;fontSize=20;" vertex="1" parent="1">
          <mxGeometry x="250" y="190" width="120" height="100" as="geometry" />
        </mxCell>
        <mxCell id="oWGPLextWkkVd9E027HA-62" value="E_Name" style="ellipse;whiteSpace=wrap;html=1;align=center;strokeColor=#000000;fontSize=14;" vertex="1" parent="1">
          <mxGeometry x="140" y="550" width="100" height="40" as="geometry" />
        </mxCell>
        <mxCell id="oWGPLextWkkVd9E027HA-63" value="E_Password" style="ellipse;whiteSpace=wrap;html=1;align=center;strokeColor=#000000;fontSize=14;" vertex="1" parent="1">
          <mxGeometry x="435" y="470" width="100" height="40" as="geometry" />
        </mxCell>
        <mxCell id="oWGPLextWkkVd9E027HA-64" value="E_Task" style="ellipse;whiteSpace=wrap;html=1;align=center;strokeColor=#000000;fontSize=14;" vertex="1" parent="1">
          <mxGeometry x="310" y="560" width="100" height="40" as="geometry" />
        </mxCell>
        <mxCell id="oWGPLextWkkVd9E027HA-65" value="E_phone" style="ellipse;whiteSpace=wrap;html=1;align=center;strokeColor=#000000;fontSize=14;" vertex="1" parent="1">
          <mxGeometry x="370" y="520" width="100" height="40" as="geometry" />
        </mxCell>
        <mxCell id="oWGPLextWkkVd9E027HA-66" value="EID" style="ellipse;whiteSpace=wrap;html=1;align=center;strokeColor=#000000;fontSize=14;fontStyle=4" vertex="1" parent="1">
          <mxGeometry x="90" y="490" width="100" height="40" as="geometry" />
        </mxCell>
        <mxCell id="oWGPLextWkkVd9E027HA-67" value="" style="endArrow=none;html=1;rounded=0;fontSize=14;entryX=0;entryY=0.5;entryDx=0;entryDy=0;exitX=0;exitY=0.5;exitDx=0;exitDy=0;" edge="1" parent="1" source="oWGPLextWkkVd9E027HA-22" target="oWGPLextWkkVd9E027HA-31">
          <mxGeometry relative="1" as="geometry">
            <mxPoint x="260" y="510" as="sourcePoint" />
            <mxPoint x="420" y="510" as="targetPoint" />
            <Array as="points">
              <mxPoint x="-120" y="260" />
              <mxPoint x="-120" y="670" />
            </Array>
          </mxGeometry>
        </mxCell>
        <mxCell id="oWGPLextWkkVd9E027HA-68" value="1" style="resizable=0;html=1;align=right;verticalAlign=bottom;" connectable="0" vertex="1" parent="oWGPLextWkkVd9E027HA-67">
          <mxGeometry x="1" relative="1" as="geometry" />
        </mxCell>
        <mxCell id="oWGPLextWkkVd9E027HA-69" value="" style="endArrow=none;html=1;rounded=0;fontSize=14;entryX=0.5;entryY=0;entryDx=0;entryDy=0;exitX=0.75;exitY=1;exitDx=0;exitDy=0;" edge="1" parent="1" source="oWGPLextWkkVd9E027HA-22" target="oWGPLextWkkVd9E027HA-32">
          <mxGeometry relative="1" as="geometry">
            <mxPoint x="-70" y="310" as="sourcePoint" />
            <mxPoint x="90" y="310" as="targetPoint" />
            <Array as="points">
              <mxPoint x="-10" y="330" />
            </Array>
          </mxGeometry>
        </mxCell>
        <mxCell id="oWGPLextWkkVd9E027HA-70" value="1" style="resizable=0;html=1;align=right;verticalAlign=bottom;" connectable="0" vertex="1" parent="oWGPLextWkkVd9E027HA-69">
          <mxGeometry x="1" relative="1" as="geometry" />
        </mxCell>
        <mxCell id="oWGPLextWkkVd9E027HA-71" value="" style="endArrow=none;html=1;rounded=0;fontSize=14;" edge="1" parent="1">
          <mxGeometry relative="1" as="geometry">
            <mxPoint x="20" y="260" as="sourcePoint" />
            <mxPoint x="80" y="260" as="targetPoint" />
          </mxGeometry>
        </mxCell>
        <mxCell id="oWGPLextWkkVd9E027HA-72" value="1" style="resizable=0;html=1;align=right;verticalAlign=bottom;" connectable="0" vertex="1" parent="oWGPLextWkkVd9E027HA-71">
          <mxGeometry x="1" relative="1" as="geometry" />
        </mxCell>
        <mxCell id="oWGPLextWkkVd9E027HA-73" value="" style="endArrow=none;html=1;rounded=0;fontSize=14;entryX=0.5;entryY=0;entryDx=0;entryDy=0;exitX=0.417;exitY=1.018;exitDx=0;exitDy=0;exitPerimeter=0;" edge="1" parent="1" source="oWGPLextWkkVd9E027HA-23" target="oWGPLextWkkVd9E027HA-60">
          <mxGeometry relative="1" as="geometry">
            <mxPoint x="150" y="129" as="sourcePoint" />
            <mxPoint x="310" y="129" as="targetPoint" />
          </mxGeometry>
        </mxCell>
        <mxCell id="oWGPLextWkkVd9E027HA-74" value="N" style="resizable=0;html=1;align=right;verticalAlign=bottom;" connectable="0" vertex="1" parent="oWGPLextWkkVd9E027HA-73">
          <mxGeometry x="1" relative="1" as="geometry" />
        </mxCell>
        <mxCell id="oWGPLextWkkVd9E027HA-75" value="Admin_ID" style="ellipse;whiteSpace=wrap;html=1;align=center;strokeColor=#000000;fontSize=14;fontStyle=4" vertex="1" parent="1">
          <mxGeometry x="-230" y="180" width="100" height="40" as="geometry" />
        </mxCell>
        <mxCell id="oWGPLextWkkVd9E027HA-76" value="A_UserName" style="ellipse;whiteSpace=wrap;html=1;align=center;strokeColor=#000000;fontSize=14;" vertex="1" parent="1">
          <mxGeometry x="-140" y="150" width="100" height="40" as="geometry" />
        </mxCell>
        <mxCell id="oWGPLextWkkVd9E027HA-77" value="A_Password" style="ellipse;whiteSpace=wrap;html=1;align=center;strokeColor=#000000;fontSize=14;" vertex="1" parent="1">
          <mxGeometry x="-40" y="160" width="100" height="40" as="geometry" />
        </mxCell>
        <mxCell id="oWGPLextWkkVd9E027HA-81" value="" style="endArrow=none;html=1;rounded=0;fontSize=14;exitX=0.549;exitY=1.014;exitDx=0;exitDy=0;exitPerimeter=0;" edge="1" parent="1" source="oWGPLextWkkVd9E027HA-75" target="oWGPLextWkkVd9E027HA-22">
          <mxGeometry relative="1" as="geometry">
            <mxPoint x="-190" y="219.43" as="sourcePoint" />
            <mxPoint x="-30" y="219.43" as="targetPoint" />
          </mxGeometry>
        </mxCell>
        <mxCell id="oWGPLextWkkVd9E027HA-82" value="" style="endArrow=none;html=1;rounded=0;fontSize=14;entryX=0.374;entryY=-0.005;entryDx=0;entryDy=0;entryPerimeter=0;" edge="1" parent="1" target="oWGPLextWkkVd9E027HA-22">
          <mxGeometry relative="1" as="geometry">
            <mxPoint x="-90" y="190" as="sourcePoint" />
            <mxPoint x="70" y="190" as="targetPoint" />
          </mxGeometry>
        </mxCell>
        <mxCell id="oWGPLextWkkVd9E027HA-83" value="" style="endArrow=none;html=1;rounded=0;fontSize=14;" edge="1" parent="1" target="oWGPLextWkkVd9E027HA-22">
          <mxGeometry relative="1" as="geometry">
            <mxPoint x="10" y="200" as="sourcePoint" />
            <mxPoint x="170" y="200" as="targetPoint" />
          </mxGeometry>
        </mxCell>
        <mxCell id="oWGPLextWkkVd9E027HA-84" value="" style="endArrow=none;html=1;rounded=0;fontSize=14;exitX=1;exitY=0.5;exitDx=0;exitDy=0;entryX=0;entryY=0.5;entryDx=0;entryDy=0;" edge="1" parent="1" source="oWGPLextWkkVd9E027HA-32" target="oWGPLextWkkVd9E027HA-157">
          <mxGeometry relative="1" as="geometry">
            <mxPoint x="80" y="394.71" as="sourcePoint" />
            <mxPoint x="240" y="394.71" as="targetPoint" />
          </mxGeometry>
        </mxCell>
        <mxCell id="oWGPLextWkkVd9E027HA-85" value="N" style="resizable=0;html=1;align=right;verticalAlign=bottom;" connectable="0" vertex="1" parent="oWGPLextWkkVd9E027HA-84">
          <mxGeometry x="1" relative="1" as="geometry" />
        </mxCell>
        <mxCell id="oWGPLextWkkVd9E027HA-86" value="" style="endArrow=none;html=1;rounded=0;fontSize=14;" edge="1" parent="1">
          <mxGeometry relative="1" as="geometry">
            <mxPoint x="10" y="40" as="sourcePoint" />
            <mxPoint x="90" y="40" as="targetPoint" />
            <Array as="points">
              <mxPoint x="70" y="40" />
            </Array>
          </mxGeometry>
        </mxCell>
        <mxCell id="oWGPLextWkkVd9E027HA-87" value="" style="endArrow=none;html=1;rounded=0;fontSize=14;entryX=0.25;entryY=0;entryDx=0;entryDy=0;" edge="1" parent="1" target="oWGPLextWkkVd9E027HA-23">
          <mxGeometry relative="1" as="geometry">
            <mxPoint x="20" y="5" as="sourcePoint" />
            <mxPoint x="180" y="5" as="targetPoint" />
          </mxGeometry>
        </mxCell>
        <mxCell id="oWGPLextWkkVd9E027HA-88" value="" style="endArrow=none;html=1;rounded=0;fontSize=14;entryX=0.324;entryY=-0.003;entryDx=0;entryDy=0;entryPerimeter=0;" edge="1" parent="1" target="oWGPLextWkkVd9E027HA-23">
          <mxGeometry relative="1" as="geometry">
            <mxPoint x="60" y="-50" as="sourcePoint" />
            <mxPoint x="130" y="10" as="targetPoint" />
          </mxGeometry>
        </mxCell>
        <mxCell id="oWGPLextWkkVd9E027HA-89" value="" style="endArrow=none;html=1;rounded=0;fontSize=14;entryX=0.5;entryY=0;entryDx=0;entryDy=0;" edge="1" parent="1" target="oWGPLextWkkVd9E027HA-23">
          <mxGeometry relative="1" as="geometry">
            <mxPoint x="160" y="-40.56999999999999" as="sourcePoint" />
            <mxPoint x="320" y="-40.56999999999999" as="targetPoint" />
          </mxGeometry>
        </mxCell>
        <mxCell id="oWGPLextWkkVd9E027HA-90" value="" style="endArrow=none;html=1;rounded=0;fontSize=14;exitX=1;exitY=0.25;exitDx=0;exitDy=0;entryX=0;entryY=1;entryDx=0;entryDy=0;" edge="1" parent="1" source="oWGPLextWkkVd9E027HA-23" target="oWGPLextWkkVd9E027HA-59">
          <mxGeometry relative="1" as="geometry">
            <mxPoint x="100" y="5" as="sourcePoint" />
            <mxPoint x="260" y="5" as="targetPoint" />
          </mxGeometry>
        </mxCell>
        <mxCell id="oWGPLextWkkVd9E027HA-91" value="" style="endArrow=none;html=1;rounded=0;fontSize=14;exitX=1;exitY=0.5;exitDx=0;exitDy=0;" edge="1" parent="1" source="oWGPLextWkkVd9E027HA-23">
          <mxGeometry relative="1" as="geometry">
            <mxPoint x="220" y="31.25" as="sourcePoint" />
            <mxPoint x="250" y="25" as="targetPoint" />
          </mxGeometry>
        </mxCell>
        <mxCell id="oWGPLextWkkVd9E027HA-92" value="" style="endArrow=none;html=1;rounded=0;fontSize=14;entryX=0.5;entryY=0;entryDx=0;entryDy=0;exitX=1;exitY=0.818;exitDx=0;exitDy=0;exitPerimeter=0;" edge="1" parent="1" source="oWGPLextWkkVd9E027HA-23" target="oWGPLextWkkVd9E027HA-61">
          <mxGeometry relative="1" as="geometry">
            <mxPoint x="190" y="70" as="sourcePoint" />
            <mxPoint x="350" y="70" as="targetPoint" />
            <Array as="points">
              <mxPoint x="310" y="60" />
            </Array>
          </mxGeometry>
        </mxCell>
        <mxCell id="oWGPLextWkkVd9E027HA-93" value="N" style="resizable=0;html=1;align=right;verticalAlign=bottom;" connectable="0" vertex="1" parent="oWGPLextWkkVd9E027HA-92">
          <mxGeometry x="1" relative="1" as="geometry" />
        </mxCell>
        <mxCell id="oWGPLextWkkVd9E027HA-94" value="" style="endArrow=none;html=1;rounded=0;fontSize=14;exitX=0.5;exitY=1;exitDx=0;exitDy=0;entryX=0.594;entryY=0;entryDx=0;entryDy=0;entryPerimeter=0;" edge="1" parent="1" source="oWGPLextWkkVd9E027HA-61" target="oWGPLextWkkVd9E027HA-157">
          <mxGeometry relative="1" as="geometry">
            <mxPoint x="240" y="280" as="sourcePoint" />
            <mxPoint x="309.94000000000005" y="370" as="targetPoint" />
            <Array as="points" />
          </mxGeometry>
        </mxCell>
        <mxCell id="oWGPLextWkkVd9E027HA-95" value="1" style="resizable=0;html=1;align=right;verticalAlign=bottom;" connectable="0" vertex="1" parent="oWGPLextWkkVd9E027HA-94">
          <mxGeometry x="1" relative="1" as="geometry" />
        </mxCell>
        <mxCell id="oWGPLextWkkVd9E027HA-96" value="" style="endArrow=none;html=1;rounded=0;fontSize=14;" edge="1" parent="1" target="oWGPLextWkkVd9E027HA-24">
          <mxGeometry relative="1" as="geometry">
            <mxPoint x="450" y="-20" as="sourcePoint" />
            <mxPoint x="610" y="-20" as="targetPoint" />
          </mxGeometry>
        </mxCell>
        <mxCell id="oWGPLextWkkVd9E027HA-97" value="" style="endArrow=none;html=1;rounded=0;fontSize=14;entryX=0.75;entryY=0;entryDx=0;entryDy=0;exitX=0;exitY=1;exitDx=0;exitDy=0;" edge="1" parent="1" source="oWGPLextWkkVd9E027HA-56" target="oWGPLextWkkVd9E027HA-24">
          <mxGeometry relative="1" as="geometry">
            <mxPoint x="570" as="sourcePoint" />
            <mxPoint x="730" as="targetPoint" />
          </mxGeometry>
        </mxCell>
        <mxCell id="oWGPLextWkkVd9E027HA-98" value="" style="endArrow=none;html=1;rounded=0;fontSize=14;" edge="1" parent="1" source="oWGPLextWkkVd9E027HA-24">
          <mxGeometry relative="1" as="geometry">
            <mxPoint x="405" y="41.91" as="sourcePoint" />
            <mxPoint x="565" y="41.91" as="targetPoint" />
          </mxGeometry>
        </mxCell>
        <mxCell id="oWGPLextWkkVd9E027HA-99" value="" style="endArrow=none;html=1;rounded=0;fontSize=14;entryX=0.5;entryY=0;entryDx=0;entryDy=0;" edge="1" parent="1" target="oWGPLextWkkVd9E027HA-48">
          <mxGeometry relative="1" as="geometry">
            <mxPoint x="500" y="100" as="sourcePoint" />
            <mxPoint x="660" y="100" as="targetPoint" />
            <Array as="points">
              <mxPoint x="555" y="100" />
            </Array>
          </mxGeometry>
        </mxCell>
        <mxCell id="oWGPLextWkkVd9E027HA-100" value="N" style="resizable=0;html=1;align=right;verticalAlign=bottom;" connectable="0" vertex="1" parent="oWGPLextWkkVd9E027HA-99">
          <mxGeometry x="1" relative="1" as="geometry" />
        </mxCell>
        <mxCell id="oWGPLextWkkVd9E027HA-101" value="" style="endArrow=none;html=1;rounded=0;fontSize=14;exitX=0.5;exitY=1;exitDx=0;exitDy=0;" edge="1" parent="1" source="oWGPLextWkkVd9E027HA-48">
          <mxGeometry relative="1" as="geometry">
            <mxPoint x="480" y="218.82" as="sourcePoint" />
            <mxPoint x="640" y="218.82" as="targetPoint" />
            <Array as="points">
              <mxPoint x="555" y="210" />
            </Array>
          </mxGeometry>
        </mxCell>
        <mxCell id="oWGPLextWkkVd9E027HA-102" value="1" style="resizable=0;html=1;align=right;verticalAlign=bottom;" connectable="0" vertex="1" parent="oWGPLextWkkVd9E027HA-101">
          <mxGeometry x="1" relative="1" as="geometry" />
        </mxCell>
        <mxCell id="oWGPLextWkkVd9E027HA-103" value="" style="endArrow=none;html=1;rounded=0;fontSize=14;" edge="1" parent="1" target="oWGPLextWkkVd9E027HA-25">
          <mxGeometry relative="1" as="geometry">
            <mxPoint x="700" y="158.82" as="sourcePoint" />
            <mxPoint x="860" y="158.82" as="targetPoint" />
          </mxGeometry>
        </mxCell>
        <mxCell id="oWGPLextWkkVd9E027HA-104" value="" style="endArrow=none;html=1;rounded=0;fontSize=14;" edge="1" parent="1" target="oWGPLextWkkVd9E027HA-25">
          <mxGeometry relative="1" as="geometry">
            <mxPoint x="820" y="140" as="sourcePoint" />
            <mxPoint x="980" y="140" as="targetPoint" />
          </mxGeometry>
        </mxCell>
        <mxCell id="oWGPLextWkkVd9E027HA-105" value="" style="endArrow=none;html=1;rounded=0;fontSize=14;exitX=0.5;exitY=1;exitDx=0;exitDy=0;" edge="1" parent="1" source="oWGPLextWkkVd9E027HA-25" target="oWGPLextWkkVd9E027HA-42">
          <mxGeometry relative="1" as="geometry">
            <mxPoint x="670" y="240" as="sourcePoint" />
            <mxPoint x="830" y="240" as="targetPoint" />
          </mxGeometry>
        </mxCell>
        <mxCell id="oWGPLextWkkVd9E027HA-106" value="1" style="resizable=0;html=1;align=right;verticalAlign=bottom;" connectable="0" vertex="1" parent="oWGPLextWkkVd9E027HA-105">
          <mxGeometry x="1" relative="1" as="geometry" />
        </mxCell>
        <mxCell id="oWGPLextWkkVd9E027HA-109" value="" style="endArrow=none;html=1;rounded=0;fontSize=14;entryX=0.5;entryY=0;entryDx=0;entryDy=0;exitX=0.5;exitY=1;exitDx=0;exitDy=0;" edge="1" parent="1" source="oWGPLextWkkVd9E027HA-24" target="oWGPLextWkkVd9E027HA-49">
          <mxGeometry relative="1" as="geometry">
            <mxPoint x="440" y="115" as="sourcePoint" />
            <mxPoint x="600" y="115" as="targetPoint" />
          </mxGeometry>
        </mxCell>
        <mxCell id="oWGPLextWkkVd9E027HA-110" value="N" style="resizable=0;html=1;align=right;verticalAlign=bottom;" connectable="0" vertex="1" parent="oWGPLextWkkVd9E027HA-109">
          <mxGeometry x="1" relative="1" as="geometry" />
        </mxCell>
        <mxCell id="oWGPLextWkkVd9E027HA-111" value="" style="endArrow=none;html=1;rounded=0;fontSize=14;entryX=0.422;entryY=-0.04;entryDx=0;entryDy=0;entryPerimeter=0;" edge="1" parent="1" target="oWGPLextWkkVd9E027HA-19">
          <mxGeometry relative="1" as="geometry">
            <mxPoint x="490" y="260" as="sourcePoint" />
            <mxPoint x="650" y="260" as="targetPoint" />
          </mxGeometry>
        </mxCell>
        <mxCell id="oWGPLextWkkVd9E027HA-112" value="N" style="resizable=0;html=1;align=right;verticalAlign=bottom;" connectable="0" vertex="1" parent="oWGPLextWkkVd9E027HA-111">
          <mxGeometry x="1" relative="1" as="geometry" />
        </mxCell>
        <mxCell id="oWGPLextWkkVd9E027HA-113" value="" style="endArrow=none;html=1;rounded=0;fontSize=14;entryX=0;entryY=0.5;entryDx=0;entryDy=0;" edge="1" parent="1" target="oWGPLextWkkVd9E027HA-33">
          <mxGeometry relative="1" as="geometry">
            <mxPoint x="390" y="404" as="sourcePoint" />
            <mxPoint x="530" y="394.40999999999997" as="targetPoint" />
          </mxGeometry>
        </mxCell>
        <mxCell id="oWGPLextWkkVd9E027HA-114" value="1" style="resizable=0;html=1;align=right;verticalAlign=bottom;" connectable="0" vertex="1" parent="oWGPLextWkkVd9E027HA-113">
          <mxGeometry x="1" relative="1" as="geometry" />
        </mxCell>
        <mxCell id="oWGPLextWkkVd9E027HA-118" value="" style="endArrow=none;html=1;rounded=0;fontSize=14;exitX=1;exitY=0.5;exitDx=0;exitDy=0;" edge="1" parent="1" source="oWGPLextWkkVd9E027HA-33">
          <mxGeometry relative="1" as="geometry">
            <mxPoint x="540" y="394" as="sourcePoint" />
            <mxPoint x="610" y="394.40999999999997" as="targetPoint" />
          </mxGeometry>
        </mxCell>
        <mxCell id="oWGPLextWkkVd9E027HA-119" value="N" style="resizable=0;html=1;align=right;verticalAlign=bottom;" connectable="0" vertex="1" parent="oWGPLextWkkVd9E027HA-118">
          <mxGeometry x="1" relative="1" as="geometry" />
        </mxCell>
        <mxCell id="oWGPLextWkkVd9E027HA-121" value="" style="endArrow=none;html=1;rounded=0;fontSize=14;entryX=0;entryY=0.5;entryDx=0;entryDy=0;" edge="1" parent="1" target="oWGPLextWkkVd9E027HA-43">
          <mxGeometry relative="1" as="geometry">
            <mxPoint x="710" y="409.40999999999997" as="sourcePoint" />
            <mxPoint x="870" y="409.40999999999997" as="targetPoint" />
          </mxGeometry>
        </mxCell>
        <mxCell id="oWGPLextWkkVd9E027HA-122" value="" style="endArrow=none;html=1;rounded=0;fontSize=14;entryX=0;entryY=0.5;entryDx=0;entryDy=0;" edge="1" parent="1" target="oWGPLextWkkVd9E027HA-44">
          <mxGeometry relative="1" as="geometry">
            <mxPoint x="710" y="426.32" as="sourcePoint" />
            <mxPoint x="870" y="426.32" as="targetPoint" />
          </mxGeometry>
        </mxCell>
        <mxCell id="oWGPLextWkkVd9E027HA-123" value="" style="endArrow=none;html=1;rounded=0;fontSize=14;entryX=0.75;entryY=0;entryDx=0;entryDy=0;" edge="1" parent="1" target="oWGPLextWkkVd9E027HA-19">
          <mxGeometry relative="1" as="geometry">
            <mxPoint x="690" y="330" as="sourcePoint" />
            <mxPoint x="850" y="330" as="targetPoint" />
          </mxGeometry>
        </mxCell>
        <mxCell id="oWGPLextWkkVd9E027HA-124" value="N" style="resizable=0;html=1;align=right;verticalAlign=bottom;" connectable="0" vertex="1" parent="oWGPLextWkkVd9E027HA-123">
          <mxGeometry x="1" relative="1" as="geometry" />
        </mxCell>
        <mxCell id="oWGPLextWkkVd9E027HA-125" value="&lt;span style=&quot;border-bottom: 1px dotted&quot;&gt;Location&lt;/span&gt;" style="ellipse;whiteSpace=wrap;html=1;align=center;strokeColor=#000000;fontSize=14;" vertex="1" parent="1">
          <mxGeometry x="910" y="610" width="100" height="40" as="geometry" />
        </mxCell>
        <mxCell id="oWGPLextWkkVd9E027HA-126" value="&lt;span style=&quot;border-bottom: 1px dotted&quot;&gt;D_Password&lt;/span&gt;" style="ellipse;whiteSpace=wrap;html=1;align=center;strokeColor=#000000;fontSize=14;" vertex="1" parent="1">
          <mxGeometry x="890" y="690" width="100" height="40" as="geometry" />
        </mxCell>
        <mxCell id="oWGPLextWkkVd9E027HA-127" value="&lt;span style=&quot;border-bottom: 1px dotted&quot;&gt;D_phone&lt;/span&gt;" style="ellipse;whiteSpace=wrap;html=1;align=center;strokeColor=#000000;fontSize=14;fontStyle=0;" vertex="1" parent="1">
          <mxGeometry x="770" y="760" width="100" height="40" as="geometry" />
        </mxCell>
        <mxCell id="oWGPLextWkkVd9E027HA-128" value="&lt;span style=&quot;border-bottom: 1px dotted&quot;&gt;D_Name&lt;/span&gt;" style="ellipse;whiteSpace=wrap;html=1;align=center;strokeColor=#000000;fontSize=14;" vertex="1" parent="1">
          <mxGeometry x="620" y="750" width="100" height="40" as="geometry" />
        </mxCell>
        <mxCell id="oWGPLextWkkVd9E027HA-129" value="" style="endArrow=none;html=1;rounded=0;fontSize=14;entryX=0;entryY=0.5;entryDx=0;entryDy=0;" edge="1" parent="1" target="oWGPLextWkkVd9E027HA-125">
          <mxGeometry relative="1" as="geometry">
            <mxPoint x="840" y="640" as="sourcePoint" />
            <mxPoint x="920" y="640" as="targetPoint" />
          </mxGeometry>
        </mxCell>
        <mxCell id="oWGPLextWkkVd9E027HA-130" value="" style="endArrow=none;html=1;rounded=0;fontSize=14;entryX=0.5;entryY=0;entryDx=0;entryDy=0;" edge="1" parent="1" target="oWGPLextWkkVd9E027HA-30">
          <mxGeometry relative="1" as="geometry">
            <mxPoint x="280" y="415" as="sourcePoint" />
            <mxPoint x="440" y="415" as="targetPoint" />
          </mxGeometry>
        </mxCell>
        <mxCell id="oWGPLextWkkVd9E027HA-131" value="1" style="resizable=0;html=1;align=right;verticalAlign=bottom;" connectable="0" vertex="1" parent="oWGPLextWkkVd9E027HA-130">
          <mxGeometry x="1" relative="1" as="geometry" />
        </mxCell>
        <mxCell id="oWGPLextWkkVd9E027HA-132" value="" style="endArrow=none;html=1;rounded=0;fontSize=14;entryX=0.827;entryY=-0.044;entryDx=0;entryDy=0;entryPerimeter=0;" edge="1" parent="1" target="oWGPLextWkkVd9E027HA-21">
          <mxGeometry relative="1" as="geometry">
            <mxPoint x="280" y="650" as="sourcePoint" />
            <mxPoint x="440" y="650" as="targetPoint" />
          </mxGeometry>
        </mxCell>
        <mxCell id="oWGPLextWkkVd9E027HA-133" value="N" style="resizable=0;html=1;align=right;verticalAlign=bottom;" connectable="0" vertex="1" parent="oWGPLextWkkVd9E027HA-132">
          <mxGeometry x="1" relative="1" as="geometry" />
        </mxCell>
        <mxCell id="oWGPLextWkkVd9E027HA-134" value="&lt;span style=&quot;border-bottom: 1px dotted&quot;&gt;DID&lt;/span&gt;" style="ellipse;whiteSpace=wrap;html=1;align=center;strokeColor=#000000;fontSize=14;" vertex="1" parent="1">
          <mxGeometry x="30" y="860" width="100" height="40" as="geometry" />
        </mxCell>
        <mxCell id="oWGPLextWkkVd9E027HA-135" value="&lt;span style=&quot;border-bottom: 1px dotted&quot;&gt;Status&lt;/span&gt;" style="ellipse;whiteSpace=wrap;html=1;align=center;strokeColor=#000000;fontSize=14;" vertex="1" parent="1">
          <mxGeometry x="150" y="880" width="100" height="40" as="geometry" />
        </mxCell>
        <mxCell id="oWGPLextWkkVd9E027HA-136" value="&lt;span style=&quot;border-bottom: 1px dotted&quot;&gt;Location&lt;/span&gt;" style="ellipse;whiteSpace=wrap;html=1;align=center;strokeColor=#000000;fontSize=14;" vertex="1" parent="1">
          <mxGeometry x="270" y="840" width="100" height="40" as="geometry" />
        </mxCell>
        <mxCell id="oWGPLextWkkVd9E027HA-137" value="" style="endArrow=none;html=1;rounded=0;fontSize=14;entryX=0;entryY=0.5;entryDx=0;entryDy=0;" edge="1" parent="1" target="oWGPLextWkkVd9E027HA-21">
          <mxGeometry relative="1" as="geometry">
            <mxPoint x="20" y="700" as="sourcePoint" />
            <mxPoint x="180" y="700" as="targetPoint" />
            <Array as="points">
              <mxPoint x="20" y="745" />
            </Array>
          </mxGeometry>
        </mxCell>
        <mxCell id="oWGPLextWkkVd9E027HA-138" value="N" style="resizable=0;html=1;align=right;verticalAlign=bottom;" connectable="0" vertex="1" parent="oWGPLextWkkVd9E027HA-137">
          <mxGeometry x="1" relative="1" as="geometry" />
        </mxCell>
        <mxCell id="oWGPLextWkkVd9E027HA-139" value="" style="endArrow=none;html=1;rounded=0;fontSize=14;" edge="1" parent="1" target="oWGPLextWkkVd9E027HA-128">
          <mxGeometry relative="1" as="geometry">
            <mxPoint x="770" y="660" as="sourcePoint" />
            <mxPoint x="930" y="660" as="targetPoint" />
          </mxGeometry>
        </mxCell>
        <mxCell id="oWGPLextWkkVd9E027HA-140" value="" style="endArrow=none;html=1;rounded=0;fontSize=14;" edge="1" parent="1" target="oWGPLextWkkVd9E027HA-127">
          <mxGeometry relative="1" as="geometry">
            <mxPoint x="790" y="660" as="sourcePoint" />
            <mxPoint x="950" y="660" as="targetPoint" />
          </mxGeometry>
        </mxCell>
        <mxCell id="oWGPLextWkkVd9E027HA-141" value="" style="endArrow=none;html=1;rounded=0;fontSize=14;entryX=0.234;entryY=0.078;entryDx=0;entryDy=0;entryPerimeter=0;" edge="1" parent="1" target="oWGPLextWkkVd9E027HA-126">
          <mxGeometry relative="1" as="geometry">
            <mxPoint x="840" y="660" as="sourcePoint" />
            <mxPoint x="1000" y="660" as="targetPoint" />
          </mxGeometry>
        </mxCell>
        <mxCell id="oWGPLextWkkVd9E027HA-142" value="&lt;span style=&quot;border-bottom: 1px dotted&quot;&gt;National ID&lt;/span&gt;" style="ellipse;whiteSpace=wrap;html=1;align=center;strokeColor=#000000;fontSize=14;fontStyle=4" vertex="1" parent="1">
          <mxGeometry x="535" y="690" width="100" height="40" as="geometry" />
        </mxCell>
        <mxCell id="oWGPLextWkkVd9E027HA-143" value="" style="endArrow=none;html=1;rounded=0;fontSize=14;" edge="1" parent="1" source="oWGPLextWkkVd9E027HA-142">
          <mxGeometry relative="1" as="geometry">
            <mxPoint x="580" y="660" as="sourcePoint" />
            <mxPoint x="740" y="660" as="targetPoint" />
          </mxGeometry>
        </mxCell>
        <mxCell id="oWGPLextWkkVd9E027HA-145" value="" style="endArrow=none;html=1;rounded=0;fontSize=14;entryX=0.5;entryY=0;entryDx=0;entryDy=0;" edge="1" parent="1" target="oWGPLextWkkVd9E027HA-134">
          <mxGeometry relative="1" as="geometry">
            <mxPoint x="170" y="770" as="sourcePoint" />
            <mxPoint x="330" y="770" as="targetPoint" />
          </mxGeometry>
        </mxCell>
        <mxCell id="oWGPLextWkkVd9E027HA-146" value="" style="endArrow=none;html=1;rounded=0;fontSize=14;entryX=0.5;entryY=0;entryDx=0;entryDy=0;exitX=0.5;exitY=1;exitDx=0;exitDy=0;" edge="1" parent="1" source="oWGPLextWkkVd9E027HA-21" target="oWGPLextWkkVd9E027HA-135">
          <mxGeometry relative="1" as="geometry">
            <mxPoint x="175" y="770" as="sourcePoint" />
            <mxPoint x="335" y="770" as="targetPoint" />
          </mxGeometry>
        </mxCell>
        <mxCell id="oWGPLextWkkVd9E027HA-147" value="" style="endArrow=none;html=1;rounded=0;fontSize=14;entryX=0.5;entryY=0;entryDx=0;entryDy=0;" edge="1" parent="1" target="oWGPLextWkkVd9E027HA-136">
          <mxGeometry relative="1" as="geometry">
            <mxPoint x="210" y="770" as="sourcePoint" />
            <mxPoint x="370" y="770" as="targetPoint" />
          </mxGeometry>
        </mxCell>
        <mxCell id="oWGPLextWkkVd9E027HA-148" value="" style="endArrow=none;html=1;rounded=0;fontSize=14;entryX=0;entryY=0.889;entryDx=0;entryDy=0;entryPerimeter=0;exitX=0.5;exitY=0;exitDx=0;exitDy=0;" edge="1" parent="1" source="oWGPLextWkkVd9E027HA-66">
          <mxGeometry relative="1" as="geometry">
            <mxPoint x="130" y="490" as="sourcePoint" />
            <mxPoint x="240" y="410.0050000000001" as="targetPoint" />
          </mxGeometry>
        </mxCell>
        <mxCell id="oWGPLextWkkVd9E027HA-149" value="" style="endArrow=none;html=1;rounded=0;fontSize=14;exitX=0.586;exitY=0.007;exitDx=0;exitDy=0;exitPerimeter=0;" edge="1" parent="1" source="oWGPLextWkkVd9E027HA-62">
          <mxGeometry relative="1" as="geometry">
            <mxPoint x="110" y="414.43" as="sourcePoint" />
            <mxPoint x="270" y="414.43" as="targetPoint" />
          </mxGeometry>
        </mxCell>
        <mxCell id="oWGPLextWkkVd9E027HA-150" value="" style="endArrow=none;html=1;rounded=0;fontSize=14;exitX=0.442;exitY=1.035;exitDx=0;exitDy=0;exitPerimeter=0;" edge="1" parent="1" target="oWGPLextWkkVd9E027HA-64">
          <mxGeometry relative="1" as="geometry">
            <mxPoint x="297.46000000000004" y="416.57500000000005" as="sourcePoint" />
            <mxPoint x="351" y="557" as="targetPoint" />
          </mxGeometry>
        </mxCell>
        <mxCell id="oWGPLextWkkVd9E027HA-152" value="" style="endArrow=none;html=1;rounded=0;fontSize=14;entryX=0.417;entryY=0.029;entryDx=0;entryDy=0;entryPerimeter=0;" edge="1" parent="1" target="oWGPLextWkkVd9E027HA-65">
          <mxGeometry relative="1" as="geometry">
            <mxPoint x="330" y="415" as="sourcePoint" />
            <mxPoint x="490" y="415" as="targetPoint" />
          </mxGeometry>
        </mxCell>
        <mxCell id="oWGPLextWkkVd9E027HA-153" value="" style="endArrow=none;html=1;rounded=0;fontSize=14;" edge="1" parent="1" target="oWGPLextWkkVd9E027HA-63">
          <mxGeometry relative="1" as="geometry">
            <mxPoint x="360" y="415" as="sourcePoint" />
            <mxPoint x="471" y="467" as="targetPoint" />
          </mxGeometry>
        </mxCell>
        <mxCell id="oWGPLextWkkVd9E027HA-155" value="Online Donation ER Diagram" style="text;html=1;strokeColor=none;fillColor=none;align=center;verticalAlign=middle;whiteSpace=wrap;rounded=0;fontSize=28;" vertex="1" parent="1">
          <mxGeometry x="160" y="-250" width="430" height="90" as="geometry" />
        </mxCell>
        <mxCell id="oWGPLextWkkVd9E027HA-157" value="Charity_Emp" style="shape=ext;margin=3;double=1;whiteSpace=wrap;html=1;align=center;strokeColor=#000000;fontSize=28;" vertex="1" parent="1">
          <mxGeometry x="210" y="382.5" width="180" height="55" as="geometry" />
        </mxCell>
        <mxCell id="oWGPLextWkkVd9E027HA-159" value="Prateek 817" style="text;html=1;strokeColor=none;fillColor=none;align=center;verticalAlign=middle;whiteSpace=wrap;rounded=0;fontSize=28;" vertex="1" parent="1">
          <mxGeometry x="296" y="-180" width="230" height="70" as="geometry" />
        </mxCell>
      </root>
    </mxGraphModel>
  </diagram>
</mxfile>
